<?xml version="1.0"?>
<svg xmlns="http://www.w3.org/2000/svg" xmlns:xlink="http://www.w3.org/1999/xlink" xmlns:svgjs="http://svgjs.com/svgjs" version="1.1" width="512" height="512" x="0" y="0" viewBox="0 0 24 24" style="enable-background:new 0 0 512 512" xml:space="preserve" class=""><g><path xmlns="http://www.w3.org/2000/svg" d="m7.63 24c-.005 0-.011 0-.017 0-.185-.006-.351-.113-.432-.279l-1.442-2.931-3.267.209c-.183.004-.359-.079-.457-.235-.097-.157-.101-.354-.008-.514l5.436-9.421c.138-.239.444-.321.683-.183s.321.444.183.683l-4.969 8.612 2.669-.17c.21-.012.392.097.48.278l1.177 2.391 3.822-6.61c.138-.239.442-.323.683-.182.239.138.321.444.182.683l-4.29 7.42c-.09.154-.255.249-.433.249z" fill="#ffffff" data-original="#000000" style="" class=""/><path xmlns="http://www.w3.org/2000/svg" d="m16.21 24c-.178 0-.343-.095-.433-.25l-5.715-9.935c-.136-.24-.052-.545.188-.682.241-.136.545-.051.682.188l1.423 2.511 3.821 6.609 1.186-2.395c.089-.18.27-.288.48-.277l2.669.17-4.917-8.525c-.138-.239-.056-.545.183-.683.24-.139.544-.057.683.183l5.383 9.334c.092.16.089.357-.008.514-.098.157-.278.241-.457.235l-3.268-.207-1.452 2.932c-.082.165-.248.271-.432.277-.005.001-.011.001-.016.001z" fill="#ffffff" data-original="#000000" style="" class=""/><path xmlns="http://www.w3.org/2000/svg" d="m14.173 14c-.248 0-.496-.052-.725-.156l-1.138-.517c-.196-.089-.423-.089-.623 0l-1.137.517c-.44.199-.95.208-1.396.023-.447-.185-.8-.551-.971-1.003l-.438-1.169c-.076-.204-.237-.364-.44-.441l-1.169-.438c-.453-.17-.819-.524-1.004-.971-.183-.448-.174-.956.026-1.396l.517-1.137c.09-.198.09-.425 0-.623l-.517-1.137c-.2-.44-.209-.949-.024-1.395.184-.447.55-.801 1.003-.971l1.169-.438c.204-.076.364-.237.44-.44l.438-1.17c.17-.453.524-.818.97-1.003.448-.185.956-.176 1.396.024l1.138.517c.197.09.424.09.623 0l1.137-.517c.44-.201.948-.209 1.396-.024.446.185.8.551.97 1.003l.438 1.169c.076.204.237.364.44.44l1.17.438c.453.17.819.524 1.004.971.185.446.176.955-.024 1.395l-.517 1.137c-.09.198-.09.424 0 .623l.517 1.137c.2.44.209.948.024 1.395s-.551.801-1.004.971l-1.169.438c-.204.076-.364.237-.44.44l-.438 1.169c-.17.453-.524.819-.971 1.004-.214.091-.443.135-.671.135zm-2.173-1.741c.247 0 .495.052.725.157l1.138.517c.191.086.404.09.599.01.195-.081.343-.234.417-.431l.438-1.169c.178-.473.551-.847 1.025-1.025l1.169-.439c.197-.074.351-.222.431-.417.081-.194.077-.407-.01-.599l-.517-1.137c-.209-.461-.209-.989 0-1.45l.517-1.138c.087-.191.091-.404.01-.599s-.234-.343-.431-.417l-1.169-.438c-.474-.178-.848-.552-1.025-1.026l-.438-1.169c-.074-.197-.222-.35-.417-.431-.196-.083-.409-.077-.6.01l-1.137.517c-.46.21-.989.21-1.449 0l-1.138-.517c-.19-.087-.405-.092-.599-.01-.195.081-.343.234-.417.431l-.438 1.169c-.178.474-.552.848-1.026 1.026l-1.169.439c-.197.074-.351.222-.431.417-.081.194-.077.407.01.599l.517 1.137c.209.461.209.989 0 1.45l-.517 1.137c-.087.192-.091.404-.01.599s.233.343.431.417l1.169.438c.474.178.848.552 1.025 1.025l.438 1.169c.074.197.222.351.417.431.194.08.406.076.599-.01l1.137-.517c.231-.103.479-.156.726-.156zm.518-11.129h.01z" fill="#ffffff" data-original="#000000" style="" class=""/><path xmlns="http://www.w3.org/2000/svg" d="m12 11c-2.206 0-4-1.794-4-4s1.794-4 4-4 4 1.794 4 4-1.794 4-4 4zm0-7c-1.654 0-3 1.346-3 3s1.346 3 3 3 3-1.346 3-3-1.346-3-3-3z" fill="#ffffff" data-original="#000000" style="" class=""/></g></svg>
