<?xml version="1.0"?>
<svg xmlns="http://www.w3.org/2000/svg" id="Layer_1" enable-background="new 0 0 511.929 511.929" height="512px" viewBox="0 0 511.929 511.929" width="512px"><g><path d="m205.054 511.929c-4.177 0-7.985-2.69-9.402-6.615-1.383-3.827-.255-8.22 2.809-10.902 3.279-2.87 8.169-3.259 11.87-.97 3.545 2.193 5.381 6.525 4.488 10.596-.996 4.542-5.102 7.891-9.765 7.891z" data-original="#000000" class="active-path" data-old_color="#000000" fill="#FFFFFF"/><path d="m364.706 345.818h-69.816l-3.457-21.438c9.513-2.577 22.681-7.373 34.919-15.101 25.112-15.854 38.603-38.695 39.088-66.13 6.892-.859 13.226-4.016 18.135-9.102 5.813-6.023 8.849-13.953 8.552-22.331-.491-13.795-10.077-25.094-23.019-28.446l-.002-11.383c8.604-4.766 16.07-11.801 21.365-20.827 7.766-13.238 9.855-28.694 5.881-43.521-3.975-14.825-13.514-27.164-26.861-34.743l-115.232-65.439c-26.9-15.272-61.519-5.994-77.171 20.688-4.794 8.172-7.425 17.189-7.801 26.382l-34.589 26.109c-23.56 18.084-28.015 51.964-9.931 75.524 4.755 6.194 10.664 11.181 17.354 14.748l-.002 12.652c-12.584 3.574-21.834 14.712-22.316 28.256-.298 8.378 2.739 16.309 8.551 22.33 4.742 4.914 10.813 8.027 17.433 9.008.458 27.358 13.946 50.196 39.076 66.113 13.041 8.26 26.257 12.813 34.939 15.163l-3.466 21.488h-69.118c-26.472 0-48.009 21.537-48.009 48.01v108.102c0 5.523 4.477 10 10 10h50.802c.076 0 .151-.001.227-.003.075.002.151.003.227.003 5.523 0 10-4.477 10-10v-48.753c0-6.756 5.497-12.253 12.253-12.253h146.494c6.756 0 12.253 5.497 12.253 12.253v38.753h-91.005c-5.523 0-10 4.478-10 10 0 5.523 4.477 10 10 10h152.26c5.523 0 10-4.477 10-10v-108.099c-.001-26.474-21.539-48.013-48.014-48.013zm-138.412-325.841c6.161 0 12.393 1.537 18.089 4.771l115.231 65.438c8.655 4.916 14.841 12.917 17.418 22.531s1.223 19.637-3.814 28.223c-10.15 17.302-32.6 23.319-50.044 13.414l-115.23-65.437c-8.655-4.916-14.841-12.917-17.419-22.531-1.814-6.767-1.68-13.737.314-20.266l79.279 46.645c1.592.937 3.338 1.383 5.062 1.383 3.427 0 6.765-1.764 8.628-4.931 2.801-4.761 1.212-10.89-3.548-13.69l-78.61-46.251c6.823-6.033 15.66-9.299 24.644-9.299zm-92.373 98.87c1.179-8.968 5.78-16.939 12.891-22.398l26.06-19.671c4.649 12.498 13.447 22.858 25.196 29.53l27.366 15.54-37.32 28.276c-7.175 5.508-16.064 7.894-25.034 6.712-8.968-1.179-16.94-5.78-22.448-12.956-5.507-7.175-7.891-16.065-6.711-25.033zm258.798 373.082h-31.255v-38.753c0-17.784-14.469-32.253-32.253-32.253h-146.494c-17.784 0-32.253 14.469-32.253 32.253v38.753h-31.254v-98.102c0-15.444 12.565-28.01 28.009-28.01h77.634c4.908 0 9.091-3.563 9.872-8.408l6.318-39.174c.427-2.648-.228-5.357-1.818-7.518s-3.982-3.592-6.638-3.973c-.668-.096-66.813-11.076-66.813-65.137 0-.716-.077-1.43-.229-2.13l-1.792-8.221c-1.001-4.594-5.068-7.87-9.771-7.87h-3.634c-2.893 0-5.593-1.147-7.604-3.229-2.008-2.082-3.058-4.827-2.955-7.731.199-5.609 5.157-10.172 11.051-10.172h1.276c5.522 0 9.999-4.477 10-9.998l.003-15.399c1.835.186 3.666.278 5.489.278 11.781-.001 23.171-3.845 32.632-11.107l44.122-33.43 68.936 39.146c8.786 4.989 18.393 7.359 27.896 7.359 2.652 0 5.296-.185 7.912-.549l.003 13.702c.001 5.522 4.478 9.998 10 9.998h1.978c5.894 0 10.852 4.564 11.051 10.171.103 2.904-.946 5.65-2.955 7.731-2.01 2.083-4.711 3.23-7.604 3.23h-4.336c-4.702 0-8.769 3.276-9.77 7.871l-1.792 8.221c-.153.699-.229 1.413-.229 2.129 0 54.058-66.147 65.04-66.815 65.136-2.656.381-5.047 1.813-6.637 3.973-1.59 2.161-2.245 4.87-1.818 7.519l6.318 39.175c.782 4.846 4.964 8.408 9.873 8.408h78.333c15.446 0 28.013 12.566 28.013 28.014z" data-original="#000000" class="active-path" data-old_color="#000000" fill="#FFFFFF"/><path d="m206.113 224.801c-5.523 0-10-4.478-10-10v-17.057c0-5.522 4.477-10 10-10s10 4.478 10 10v17.057c0 5.522-4.477 10-10 10z" data-original="#000000" class="active-path" data-old_color="#000000" fill="#FFFFFF"/><path d="m305.816 224.801c-5.523 0-10-4.478-10-10v-17.057c0-5.522 4.477-10 10-10s10 4.478 10 10v17.057c0 5.522-4.477 10-10 10z" data-original="#000000" class="active-path" data-old_color="#000000" fill="#FFFFFF"/><path d="m255.989 282.062c-9.507 0-18.373-5.116-23.139-13.353-2.766-4.78-1.132-10.897 3.648-13.663 4.779-2.768 10.898-1.134 13.664 3.647 1.202 2.077 3.435 3.368 5.827 3.368s4.624-1.29 5.826-3.367c2.766-4.781 8.882-6.415 13.664-3.649 4.781 2.766 6.414 8.883 3.649 13.663-4.765 8.237-13.631 13.354-23.139 13.354z" data-original="#000000" class="active-path" data-old_color="#000000" fill="#FFFFFF"/></g> </svg>
