<?xml version="1.0"?>
<svg xmlns="http://www.w3.org/2000/svg" id="Capa_1" enable-background="new 0 0 504.874 504.874" height="512px" viewBox="0 0 504.874 504.874" width="512px"><g><g><path d="m500.702 345.015c-40.506-28.278-80.635-47.432-119.461-57.05 18.746-61.023-1.073-119.44-2.039-122.213-1.958-5.621-8.932-8.373-14.223-5.495-18.686 10.167-35.565 21.189-50.38 32.871-10.128-35.419-28.363-72.13-54.354-109.363-3.874-5.548-12.506-5.578-16.399 0-25.988 37.226-44.221 73.931-54.35 109.346-14.811-11.676-31.681-22.693-50.358-32.855-5.312-2.892-12.26-.138-14.223 5.495-.967 2.776-20.827 61.314-1.979 122.407-38.324 9.464-78.22 28.552-118.764 56.854-5.548 3.874-5.578 12.506 0 16.399 60.743 42.404 119.343 63.869 174.317 63.867 25.276-.011 50.492-4.712 73.939-14.195 20.251 8.193 44.957 14.193 73.929 14.193 15.759 0 15.621-20 .01-20-18.085 0-34.311-2.597-48.631-6.642 5.776-3.384 10.946-6.809 15.479-10.09 16.492-11.934 33.783-19.992 48.525-34.723 13.572-13.561 24.584-29.471 32.422-46.987 33.296 7.913 67.837 23.465 102.952 46.379-24.303 15.868-48.311 28.239-71.531 36.849-12.033 4.459-5.122 23.229 6.951 18.752 28.673-10.629 58.336-26.577 88.168-47.401 5.548-3.873 5.578-12.505 0-16.398zm-248.657-237.664c23.776 36.408 39.578 71.976 47.027 105.894 13.158 59.916-.932 127.016-47.027 169.762-46.095-42.746-60.185-109.846-47.027-169.762 7.449-33.919 23.251-69.486 47.027-105.894zm-111.447 76.701c16.337 9.59 30.97 19.86 43.702 30.641-10.196 52.251-1.702 106.899 27.917 151.587-66.266-37.12-88.386-110.641-71.619-182.228zm-112.822 169.149c35.117-22.931 69.426-38.418 102.263-46.179 16.418 36.561 46.401 64.146 81.989 81.786 4.573 3.294 9.737 6.697 15.474 10.044-75.041 21.421-151.238-14.166-199.726-45.651zm264.082 13.104c29.629-44.691 38.129-99.337 27.937-151.593 12.737-10.788 27.377-21.064 43.724-30.66 16.772 71.619-5.363 145.136-71.661 182.253z" data-original="#000000" class="active-path" data-old_color="#000000" fill="#443C39"/><path d="m379.972 408.458c-2.067-5.039-8.036-7.499-13.06-5.409-5.026 2.091-7.489 8.017-5.4 13.05 2.088 5.029 8.013 7.501 13.051 5.41 5.027-2.087 7.506-8.014 5.409-13.051z" data-original="#000000" class="active-path" data-old_color="#000000" fill="#443C39"/></g></g> </svg>
