<svg width="301" height="407" viewBox="0 0 301 407" fill="none" xmlns="http://www.w3.org/2000/svg">
<path opacity="0.03" d="M150.732 372.64C233.492 372.64 300.583 305.549 300.583 222.789C300.583 140.029 233.492 72.938 150.732 72.938C67.9716 72.938 0.881012 140.029 0.881012 222.789C0.881012 305.549 67.9716 372.64 150.732 372.64Z" fill="#fff"/>
<path opacity="0.06" d="M150.732 341.328C216.199 341.328 269.271 288.256 269.271 222.789C269.271 157.322 216.199 104.25 150.732 104.25C85.2647 104.25 32.193 157.322 32.193 222.789C32.193 288.256 85.2647 341.328 150.732 341.328Z" fill="#fff"/>
<path d="M150.733 299.58C193.143 299.58 227.523 265.2 227.523 222.79C227.523 180.38 193.143 146 150.733 146C108.323 146 73.943 180.38 73.943 222.79C73.943 265.2 108.323 299.58 150.733 299.58Z" fill="#66dbe4"/>
<path d="M123.525 226.563L144.842 245.322L178.096 200.131" stroke="#fff" stroke-width="11" stroke-linecap="round"/>
<path opacity="0.51" d="M55.232 14.58C59.2582 14.58 62.522 11.3162 62.522 7.29C62.522 3.26384 59.2582 0 55.232 0C51.2059 0 47.942 3.26384 47.942 7.29C47.942 11.3162 51.2059 14.58 55.232 14.58Z" fill="#fff"/>
<path d="M18.732 260.58C20.8252 260.58 22.522 258.883 22.522 256.79C22.522 254.697 20.8252 253 18.732 253C16.6389 253 14.942 254.697 14.942 256.79C14.942 258.883 16.6389 260.58 18.732 260.58Z" fill="#fff"/>
<path d="M62.232 406.58C64.049 406.58 65.522 405.107 65.522 403.29C65.522 401.473 64.049 400 62.232 400C60.415 400 58.942 401.473 58.942 403.29C58.942 405.107 60.415 406.58 62.232 406.58Z" fill="#fff"/>
<path d="M44.232 76.58C46.049 76.58 47.522 75.107 47.522 73.29C47.522 71.473 46.049 70 44.232 70C42.415 70 40.942 71.473 40.942 73.29C40.942 75.107 42.415 76.58 44.232 76.58Z" fill="#fff"/>
<path opacity="0.61" d="M263.232 116.58C265.049 116.58 266.522 115.107 266.522 113.29C266.522 111.473 265.049 110 263.232 110C261.415 110 259.942 111.473 259.942 113.29C259.942 115.107 261.415 116.58 263.232 116.58Z" fill="#fff"/>
<path d="M253.232 372.58C255.049 372.58 256.522 371.107 256.522 369.29C256.522 367.473 255.049 366 253.232 366C251.415 366 249.942 367.473 249.942 369.29C249.942 371.107 251.415 372.58 253.232 372.58Z" fill="#fff"/>
<path d="M198.732 50.58C200.273 50.58 201.522 49.3309 201.522 47.79C201.522 46.2491 200.273 45 198.732 45C197.191 45 195.942 46.2491 195.942 47.79C195.942 49.3309 197.191 50.58 198.732 50.58Z" fill="#fff"/>
</svg>
